<svg version="1.1" xmlns="http://www.w3.org/2000/svg" xmlns:xlink="http://www.w3.org/1999/xlink" x="0px" y="0px" width="242.4px"
	 height="242.4px" viewBox="0 0 242.4 242.4" style="enable-background:new 0 0 242.4 242.4;" xml:space="preserve">
  	<title>iconsTimeTrackerUser</title>
	<g id="user">
		<circle id="kreis-hintergrund" style="fill:#FFFFFF;" cx="121.2" cy="121.2" r="116.2"/>
		<path style="fill:#0086ed;" d="M150.7,36.1c-28.4,0.5-51,24-50.5,52.5c0.5,28.4,24,51,52.5,50.5c28.4-0.5,51-24,50.5-52.5
			C202.6,58.2,179.1,35.6,150.7,36.1z M192.2,153l0.4,31.5l-22.8,6.4l-15.5-26.6c-0.2,0-0.5,0-0.7,0c-14,0.3-27.1-3.2-38.5-9.5
			l-27.7,16.5l-17-16.5l15.9-27.9c-6.5-11-10.4-23.8-10.7-37.5c0-0.2,0-0.3,0-0.5l-27.5-15l5.5-23.1l31.8-0.6
			c6.3-11.1,15.2-20.4,26-27.2l-0.4-17.5C51.6,10.6,5,60.5,5,121.2c0,64.2,52,116.2,116.2,116.2c62.6,0,113.7-49.5,116.1-111.5
			l-18.9,0.1C212,137,203,146.3,192.2,153z"/>
	</g>
	<g id="kreis">
		<circle id="kreis-rahmen" style="fill:none;stroke:#FFFFFF;stroke-width:10;stroke-miterlimit:10;" cx="121.2" cy="121.2" r="116.2"/>
	</g>
</svg>
